<?xml version='1.0' encoding='UTF-8'?>
<svg x="0px" y="0px" viewBox="0 0 32 32" version="1.1" xmlns="http://www.w3.org/2000/svg" xmlns:xlink="http://www.w3.org/1999/xlink" xml:space="preserve" id="Layer_1">
  <g id="Category">
    <path d="M19,12h-8c-0.6,0-1-0.4-1-1V5c0-0.6,0.4-1,1-1h8c0.5,0,1,0.4,1,1v6C20,11.6,19.5,12,19,12z" fill="#1177D7" class="Blue" />
    <path d="M11,26H3c-0.5,0-1-0.5-1-1v-6c0-0.5,0.5-1,1-1h8c0.6,0,1,0.5,1,1v6C12,25.5,11.6,26,11,26z" fill="#1177D7" class="Blue" />
    <path d="M27,26h-8c-0.5,0-1-0.5-1-1v-6c0-0.5,0.5-1,1-1h8c0.5,0,1,0.5,1,1v6C28,25.5,27.5,26,27,26z" fill="#1177D7" class="Blue" />
    <g opacity="0.75" class="st1">
      <path d="M16,14v-2h-2v2H7c-0.6,0-1,0.4-1,1v3h2v-2h14v2h2v-3c0-0.6-0.4-1-1-1H16z" fill="#727272" opacity="0.75" class="Black" />
    </g>
  </g>
</svg>